<svg xmlns="http://www.w3.org/2000/svg" xmlns:xlink="http://www.w3.org/1999/xlink" width="500" zoomAndPan="magnify" viewBox="0 0 375 374.999991" height="500" preserveAspectRatio="xMidYMid meet" version="1.0"><defs><g/><clipPath id="242a896b29"><path d="M 64.316406 15.433594 L 310.316406 15.433594 L 310.316406 256 L 64.316406 256 Z M 64.316406 15.433594 " clip-rule="nonzero"/></clipPath></defs><g fill="#ffffff" fill-opacity="1"><g transform="translate(38.365181, 317.167524)"><g><path d="M 26.328125 -30.40625 C 27.015625 -30.40625 27.578125 -30.171875 28.015625 -29.703125 C 28.453125 -29.242188 28.671875 -28.664062 28.671875 -27.96875 L 28.671875 -2.65625 C 28.671875 -1.894531 28.414062 -1.257812 27.90625 -0.75 C 27.394531 -0.25 26.765625 0 26.015625 0 C 25.609375 0 25.207031 -0.0625 24.8125 -0.1875 C 24.425781 -0.320312 24.148438 -0.503906 23.984375 -0.734375 L 8.03125 -20.984375 L 8.03125 -2.4375 C 8.03125 -1.738281 7.804688 -1.15625 7.359375 -0.6875 C 6.910156 -0.226562 6.328125 0 5.609375 0 C 4.910156 0 4.34375 -0.226562 3.90625 -0.6875 C 3.46875 -1.15625 3.25 -1.738281 3.25 -2.4375 L 3.25 -27.75 C 3.25 -28.507812 3.503906 -29.140625 4.015625 -29.640625 C 4.523438 -30.148438 5.15625 -30.40625 5.90625 -30.40625 C 6.34375 -30.40625 6.769531 -30.316406 7.1875 -30.140625 C 7.601562 -29.972656 7.914062 -29.742188 8.125 -29.453125 L 23.9375 -9.296875 L 23.9375 -27.96875 C 23.9375 -28.664062 24.160156 -29.242188 24.609375 -29.703125 C 25.054688 -30.171875 25.628906 -30.40625 26.328125 -30.40625 Z M 26.328125 -30.40625 "/></g></g></g><g fill="#ffffff" fill-opacity="1"><g transform="translate(70.28926, 317.167524)"><g><path d="M 23.671875 -12.15625 C 23.640625 -11.46875 23.363281 -10.90625 22.84375 -10.46875 C 22.320312 -10.03125 21.71875 -9.8125 21.03125 -9.8125 L 6.6875 -9.8125 C 7.03125 -8.101562 7.828125 -6.765625 9.078125 -5.796875 C 10.328125 -4.828125 11.734375 -4.34375 13.296875 -4.34375 C 14.484375 -4.34375 15.410156 -4.453125 16.078125 -4.671875 C 16.742188 -4.890625 17.269531 -5.117188 17.65625 -5.359375 C 18.050781 -5.609375 18.316406 -5.773438 18.453125 -5.859375 C 18.984375 -6.117188 19.476562 -6.25 19.9375 -6.25 C 20.539062 -6.25 21.0625 -6.03125 21.5 -5.59375 C 21.9375 -5.164062 22.15625 -4.660156 22.15625 -4.078125 C 22.15625 -3.296875 21.75 -2.585938 20.9375 -1.953125 C 20.125 -1.285156 19.035156 -0.71875 17.671875 -0.25 C 16.316406 0.207031 14.941406 0.4375 13.546875 0.4375 C 11.117188 0.4375 9 -0.0664062 7.1875 -1.078125 C 5.375 -2.097656 3.972656 -3.5 2.984375 -5.28125 C 2.003906 -7.0625 1.515625 -9.066406 1.515625 -11.296875 C 1.515625 -13.785156 2.035156 -15.96875 3.078125 -17.84375 C 4.117188 -19.726562 5.492188 -21.171875 7.203125 -22.171875 C 8.910156 -23.171875 10.738281 -23.671875 12.6875 -23.671875 C 14.59375 -23.671875 16.390625 -23.148438 18.078125 -22.109375 C 19.773438 -21.066406 21.128906 -19.660156 22.140625 -17.890625 C 23.160156 -16.128906 23.671875 -14.21875 23.671875 -12.15625 Z M 12.6875 -18.890625 C 9.320312 -18.890625 7.335938 -17.3125 6.734375 -14.15625 L 18.109375 -14.15625 L 18.109375 -14.46875 C 17.992188 -15.675781 17.398438 -16.710938 16.328125 -17.578125 C 15.253906 -18.453125 14.039062 -18.890625 12.6875 -18.890625 Z M 12.6875 -18.890625 "/></g></g></g><g fill="#ffffff" fill-opacity="1"><g transform="translate(95.481048, 317.167524)"><g><path d="M 20.0625 -23.234375 C 20.820312 -23.234375 21.445312 -22.976562 21.9375 -22.46875 C 22.425781 -21.96875 22.671875 -21.34375 22.671875 -20.59375 L 22.671875 -9.5625 C 22.671875 -6.425781 21.804688 -3.972656 20.078125 -2.203125 C 18.359375 -0.441406 15.910156 0.4375 12.734375 0.4375 C 9.546875 0.4375 7.097656 -0.441406 5.390625 -2.203125 C 3.679688 -3.972656 2.828125 -6.425781 2.828125 -9.5625 L 2.828125 -20.59375 C 2.828125 -21.34375 3.070312 -21.96875 3.5625 -22.46875 C 4.050781 -22.976562 4.671875 -23.234375 5.421875 -23.234375 C 6.179688 -23.234375 6.804688 -22.976562 7.296875 -22.46875 C 7.785156 -21.96875 8.03125 -21.34375 8.03125 -20.59375 L 8.03125 -9.5625 C 8.03125 -7.789062 8.421875 -6.476562 9.203125 -5.625 C 9.984375 -4.769531 11.160156 -4.34375 12.734375 -4.34375 C 14.316406 -4.34375 15.5 -4.769531 16.28125 -5.625 C 17.070312 -6.476562 17.46875 -7.789062 17.46875 -9.5625 L 17.46875 -20.59375 C 17.46875 -21.34375 17.710938 -21.96875 18.203125 -22.46875 C 18.691406 -22.976562 19.3125 -23.234375 20.0625 -23.234375 Z M 20.0625 -23.234375 "/></g></g></g><g fill="#ffffff" fill-opacity="1"><g transform="translate(120.976873, 317.167524)"><g><path d="M 14.90625 -23.671875 C 15.769531 -23.671875 16.5 -23.425781 17.09375 -22.9375 C 17.6875 -22.445312 17.984375 -21.867188 17.984375 -21.203125 C 17.984375 -20.296875 17.75 -19.617188 17.28125 -19.171875 C 16.820312 -18.722656 16.273438 -18.5 15.640625 -18.5 C 15.203125 -18.5 14.707031 -18.601562 14.15625 -18.8125 C 14.070312 -18.84375 13.878906 -18.898438 13.578125 -18.984375 C 13.273438 -19.066406 12.945312 -19.109375 12.59375 -19.109375 C 11.84375 -19.109375 11.117188 -18.875 10.421875 -18.40625 C 9.722656 -17.945312 9.148438 -17.25 8.703125 -16.3125 C 8.253906 -15.375 8.03125 -14.25 8.03125 -12.9375 L 8.03125 -2.65625 C 8.03125 -1.894531 7.785156 -1.257812 7.296875 -0.75 C 6.804688 -0.25 6.179688 0 5.421875 0 C 4.671875 0 4.050781 -0.25 3.5625 -0.75 C 3.070312 -1.257812 2.828125 -1.894531 2.828125 -2.65625 L 2.828125 -20.59375 C 2.828125 -21.34375 3.070312 -21.96875 3.5625 -22.46875 C 4.050781 -22.976562 4.671875 -23.234375 5.421875 -23.234375 C 6.179688 -23.234375 6.804688 -22.976562 7.296875 -22.46875 C 7.785156 -21.96875 8.03125 -21.34375 8.03125 -20.59375 L 8.03125 -20.03125 C 8.695312 -21.21875 9.648438 -22.117188 10.890625 -22.734375 C 12.140625 -23.359375 13.476562 -23.671875 14.90625 -23.671875 Z M 14.90625 -23.671875 "/></g></g></g><g fill="#ffffff" fill-opacity="1"><g transform="translate(139.827284, 317.167524)"><g><path d="M 21.625 -23.671875 C 22.382812 -23.671875 23.007812 -23.425781 23.5 -22.9375 C 23.988281 -22.445312 24.234375 -21.8125 24.234375 -21.03125 L 24.234375 -2.65625 C 24.234375 -1.894531 23.988281 -1.257812 23.5 -0.75 C 23.007812 -0.25 22.382812 0 21.625 0 C 20.875 0 20.257812 -0.242188 19.78125 -0.734375 C 19.300781 -1.234375 19.050781 -1.859375 19.03125 -2.609375 C 18.300781 -1.765625 17.320312 -1.046875 16.09375 -0.453125 C 14.863281 0.140625 13.566406 0.4375 12.203125 0.4375 C 10.203125 0.4375 8.390625 -0.078125 6.765625 -1.109375 C 5.148438 -2.140625 3.867188 -3.566406 2.921875 -5.390625 C 1.984375 -7.210938 1.515625 -9.28125 1.515625 -11.59375 C 1.515625 -13.914062 1.976562 -15.992188 2.90625 -17.828125 C 3.832031 -19.671875 5.097656 -21.101562 6.703125 -22.125 C 8.316406 -23.15625 10.09375 -23.671875 12.03125 -23.671875 C 13.414062 -23.671875 14.71875 -23.414062 15.9375 -22.90625 C 17.15625 -22.40625 18.1875 -21.765625 19.03125 -20.984375 L 19.03125 -21.03125 C 19.03125 -21.78125 19.273438 -22.40625 19.765625 -22.90625 C 20.253906 -23.414062 20.875 -23.671875 21.625 -23.671875 Z M 12.859375 -4.34375 C 14.742188 -4.34375 16.28125 -5.03125 17.46875 -6.40625 C 18.65625 -7.78125 19.25 -9.507812 19.25 -11.59375 C 19.25 -13.675781 18.65625 -15.410156 17.46875 -16.796875 C 16.28125 -18.191406 14.742188 -18.890625 12.859375 -18.890625 C 11.003906 -18.890625 9.484375 -18.191406 8.296875 -16.796875 C 7.109375 -15.410156 6.515625 -13.675781 6.515625 -11.59375 C 6.515625 -9.507812 7.097656 -7.78125 8.265625 -6.40625 C 9.441406 -5.03125 10.972656 -4.34375 12.859375 -4.34375 Z M 12.859375 -4.34375 "/></g></g></g><g fill="#ffffff" fill-opacity="1"><g transform="translate(166.886745, 317.167524)"><g><path d="M 8.46875 -2.65625 C 8.46875 -1.894531 8.210938 -1.257812 7.703125 -0.75 C 7.203125 -0.25 6.578125 0 5.828125 0 C 5.097656 0 4.484375 -0.25 3.984375 -0.75 C 3.492188 -1.257812 3.25 -1.894531 3.25 -2.65625 L 3.25 -29.5 C 3.25 -30.25 3.503906 -30.875 4.015625 -31.375 C 4.523438 -31.882812 5.15625 -32.140625 5.90625 -32.140625 C 6.632812 -32.140625 7.242188 -31.882812 7.734375 -31.375 C 8.222656 -30.875 8.46875 -30.25 8.46875 -29.5 Z M 8.46875 -2.65625 "/></g></g></g><g fill="#ffffff" fill-opacity="1"><g transform="translate(178.613953, 317.167524)"><g><path d="M 24.546875 -28.921875 C 25.441406 -28.460938 25.890625 -27.726562 25.890625 -26.71875 C 25.890625 -26.101562 25.671875 -25.507812 25.234375 -24.9375 C 24.773438 -24.320312 24.179688 -24.015625 23.453125 -24.015625 C 22.960938 -24.015625 22.472656 -24.144531 21.984375 -24.40625 C 20.554688 -25.070312 19.019531 -25.40625 17.375 -25.40625 C 15.34375 -25.40625 13.570312 -24.976562 12.0625 -24.125 C 10.5625 -23.269531 9.40625 -22.066406 8.59375 -20.515625 C 7.789062 -18.972656 7.390625 -17.203125 7.390625 -15.203125 C 7.390625 -11.785156 8.304688 -9.191406 10.140625 -7.421875 C 11.984375 -5.660156 14.394531 -4.78125 17.375 -4.78125 C 19.144531 -4.78125 20.679688 -5.113281 21.984375 -5.78125 C 22.503906 -6.007812 22.96875 -6.125 23.375 -6.125 C 24.125 -6.125 24.757812 -5.804688 25.28125 -5.171875 C 25.71875 -4.617188 25.9375 -4.023438 25.9375 -3.390625 C 25.9375 -2.921875 25.816406 -2.5 25.578125 -2.125 C 25.347656 -1.75 25.015625 -1.460938 24.578125 -1.265625 C 22.328125 -0.128906 19.925781 0.4375 17.375 0.4375 C 14.539062 0.4375 11.9375 -0.160156 9.5625 -1.359375 C 7.1875 -2.566406 5.285156 -4.34375 3.859375 -6.6875 C 2.441406 -9.03125 1.734375 -11.867188 1.734375 -15.203125 C 1.734375 -18.160156 2.40625 -20.8125 3.75 -23.15625 C 5.101562 -25.5 6.96875 -27.328125 9.34375 -28.640625 C 11.71875 -29.960938 14.394531 -30.625 17.375 -30.625 C 19.945312 -30.625 22.335938 -30.054688 24.546875 -28.921875 Z M 24.546875 -28.921875 "/></g></g></g><g fill="#ffffff" fill-opacity="1"><g transform="translate(205.847137, 317.167524)"><g><path d="M 25.15625 -11.59375 C 25.15625 -9.28125 24.628906 -7.203125 23.578125 -5.359375 C 22.535156 -3.523438 21.109375 -2.097656 19.296875 -1.078125 C 17.492188 -0.0664062 15.503906 0.4375 13.328125 0.4375 C 11.128906 0.4375 9.128906 -0.0664062 7.328125 -1.078125 C 5.535156 -2.097656 4.117188 -3.523438 3.078125 -5.359375 C 2.035156 -7.203125 1.515625 -9.28125 1.515625 -11.59375 C 1.515625 -13.914062 2.035156 -15.992188 3.078125 -17.828125 C 4.117188 -19.671875 5.535156 -21.101562 7.328125 -22.125 C 9.128906 -23.15625 11.128906 -23.671875 13.328125 -23.671875 C 15.503906 -23.671875 17.492188 -23.15625 19.296875 -22.125 C 21.109375 -21.101562 22.535156 -19.671875 23.578125 -17.828125 C 24.628906 -15.992188 25.15625 -13.914062 25.15625 -11.59375 Z M 19.9375 -11.59375 C 19.9375 -13.007812 19.640625 -14.273438 19.046875 -15.390625 C 18.453125 -16.515625 17.65625 -17.378906 16.65625 -17.984375 C 15.65625 -18.585938 14.546875 -18.890625 13.328125 -18.890625 C 12.117188 -18.890625 11.015625 -18.585938 10.015625 -17.984375 C 9.015625 -17.378906 8.21875 -16.515625 7.625 -15.390625 C 7.03125 -14.273438 6.734375 -13.007812 6.734375 -11.59375 C 6.734375 -10.175781 7.03125 -8.914062 7.625 -7.8125 C 8.21875 -6.71875 9.015625 -5.863281 10.015625 -5.25 C 11.015625 -4.644531 12.117188 -4.34375 13.328125 -4.34375 C 14.546875 -4.34375 15.65625 -4.644531 16.65625 -5.25 C 17.65625 -5.863281 18.453125 -6.71875 19.046875 -7.8125 C 19.640625 -8.914062 19.9375 -10.175781 19.9375 -11.59375 Z M 19.9375 -11.59375 "/></g></g></g><g fill="#ffffff" fill-opacity="1"><g transform="translate(232.515686, 317.167524)"><g><path d="M 21.625 -32.140625 C 22.382812 -32.140625 23.007812 -31.894531 23.5 -31.40625 C 23.988281 -30.914062 24.234375 -30.28125 24.234375 -29.5 L 24.234375 -2.65625 C 24.234375 -1.894531 23.988281 -1.257812 23.5 -0.75 C 23.007812 -0.25 22.382812 0 21.625 0 C 20.875 0 20.257812 -0.242188 19.78125 -0.734375 C 19.300781 -1.234375 19.050781 -1.859375 19.03125 -2.609375 C 18.300781 -1.765625 17.320312 -1.046875 16.09375 -0.453125 C 14.863281 0.140625 13.566406 0.4375 12.203125 0.4375 C 10.203125 0.4375 8.390625 -0.078125 6.765625 -1.109375 C 5.148438 -2.140625 3.867188 -3.566406 2.921875 -5.390625 C 1.984375 -7.210938 1.515625 -9.28125 1.515625 -11.59375 C 1.515625 -13.914062 1.976562 -15.992188 2.90625 -17.828125 C 3.832031 -19.671875 5.097656 -21.101562 6.703125 -22.125 C 8.316406 -23.15625 10.09375 -23.671875 12.03125 -23.671875 C 13.414062 -23.671875 14.71875 -23.414062 15.9375 -22.90625 C 17.15625 -22.40625 18.1875 -21.765625 19.03125 -20.984375 L 19.03125 -29.5 C 19.03125 -30.25 19.273438 -30.875 19.765625 -31.375 C 20.253906 -31.882812 20.875 -32.140625 21.625 -32.140625 Z M 12.859375 -4.34375 C 14.742188 -4.34375 16.28125 -5.03125 17.46875 -6.40625 C 18.65625 -7.78125 19.25 -9.507812 19.25 -11.59375 C 19.25 -13.675781 18.65625 -15.410156 17.46875 -16.796875 C 16.28125 -18.191406 14.742188 -18.890625 12.859375 -18.890625 C 11.003906 -18.890625 9.484375 -18.191406 8.296875 -16.796875 C 7.109375 -15.410156 6.515625 -13.675781 6.515625 -11.59375 C 6.515625 -9.507812 7.097656 -7.78125 8.265625 -6.40625 C 9.441406 -5.03125 10.972656 -4.34375 12.859375 -4.34375 Z M 12.859375 -4.34375 "/></g></g></g><g fill="#ffffff" fill-opacity="1"><g transform="translate(259.575147, 317.167524)"><g><path d="M 23.671875 -12.15625 C 23.640625 -11.46875 23.363281 -10.90625 22.84375 -10.46875 C 22.320312 -10.03125 21.71875 -9.8125 21.03125 -9.8125 L 6.6875 -9.8125 C 7.03125 -8.101562 7.828125 -6.765625 9.078125 -5.796875 C 10.328125 -4.828125 11.734375 -4.34375 13.296875 -4.34375 C 14.484375 -4.34375 15.410156 -4.453125 16.078125 -4.671875 C 16.742188 -4.890625 17.269531 -5.117188 17.65625 -5.359375 C 18.050781 -5.609375 18.316406 -5.773438 18.453125 -5.859375 C 18.984375 -6.117188 19.476562 -6.25 19.9375 -6.25 C 20.539062 -6.25 21.0625 -6.03125 21.5 -5.59375 C 21.9375 -5.164062 22.15625 -4.660156 22.15625 -4.078125 C 22.15625 -3.296875 21.75 -2.585938 20.9375 -1.953125 C 20.125 -1.285156 19.035156 -0.71875 17.671875 -0.25 C 16.316406 0.207031 14.941406 0.4375 13.546875 0.4375 C 11.117188 0.4375 9 -0.0664062 7.1875 -1.078125 C 5.375 -2.097656 3.972656 -3.5 2.984375 -5.28125 C 2.003906 -7.0625 1.515625 -9.066406 1.515625 -11.296875 C 1.515625 -13.785156 2.035156 -15.96875 3.078125 -17.84375 C 4.117188 -19.726562 5.492188 -21.171875 7.203125 -22.171875 C 8.910156 -23.171875 10.738281 -23.671875 12.6875 -23.671875 C 14.59375 -23.671875 16.390625 -23.148438 18.078125 -22.109375 C 19.773438 -21.066406 21.128906 -19.660156 22.140625 -17.890625 C 23.160156 -16.128906 23.671875 -14.21875 23.671875 -12.15625 Z M 12.6875 -18.890625 C 9.320312 -18.890625 7.335938 -17.3125 6.734375 -14.15625 L 18.109375 -14.15625 L 18.109375 -14.46875 C 17.992188 -15.675781 17.398438 -16.710938 16.328125 -17.578125 C 15.253906 -18.453125 14.039062 -18.890625 12.6875 -18.890625 Z M 12.6875 -18.890625 "/></g></g></g><g fill="#ffffff" fill-opacity="1"><g transform="translate(284.766935, 317.167524)"><g/></g></g><g fill="#ffffff" fill-opacity="1"><g transform="translate(296.928493, 317.167524)"><g><path d="M 27.109375 -3.390625 C 27.253906 -3.015625 27.328125 -2.664062 27.328125 -2.34375 C 27.328125 -1.59375 27.078125 -0.976562 26.578125 -0.5 C 26.085938 -0.0195312 25.523438 0.21875 24.890625 0.21875 C 24.367188 0.21875 23.894531 0.0625 23.46875 -0.25 C 23.050781 -0.570312 22.726562 -1.007812 22.5 -1.5625 L 20.234375 -6.8125 L 7.296875 -6.8125 L 5.03125 -1.515625 C 4.832031 -0.960938 4.519531 -0.535156 4.09375 -0.234375 C 3.675781 0.0664062 3.222656 0.21875 2.734375 0.21875 C 1.984375 0.21875 1.410156 0.015625 1.015625 -0.390625 C 0.628906 -0.796875 0.4375 -1.347656 0.4375 -2.046875 C 0.4375 -2.304688 0.476562 -2.578125 0.5625 -2.859375 L 11.375 -28.84375 C 11.613281 -29.425781 11.960938 -29.875 12.421875 -30.1875 C 12.890625 -30.507812 13.410156 -30.640625 13.984375 -30.578125 C 14.503906 -30.578125 14.988281 -30.425781 15.4375 -30.125 C 15.882812 -29.820312 16.210938 -29.394531 16.421875 -28.84375 Z M 9.421875 -11.8125 L 18.109375 -11.8125 L 13.71875 -21.984375 Z M 9.421875 -11.8125 "/></g></g></g><g fill="#ffffff" fill-opacity="1"><g transform="translate(324.682889, 317.167524)"><g><path d="M 8.6875 -2.65625 C 8.6875 -1.894531 8.410156 -1.257812 7.859375 -0.75 C 7.304688 -0.25 6.671875 0 5.953125 0 C 5.171875 0 4.523438 -0.25 4.015625 -0.75 C 3.503906 -1.257812 3.25 -1.894531 3.25 -2.65625 L 3.25 -27.75 C 3.25 -28.507812 3.507812 -29.140625 4.03125 -29.640625 C 4.5625 -30.148438 5.226562 -30.40625 6.03125 -30.40625 C 6.757812 -30.40625 7.382812 -30.148438 7.90625 -29.640625 C 8.425781 -29.140625 8.6875 -28.507812 8.6875 -27.75 Z M 8.6875 -2.65625 "/></g></g></g><g clip-path="url(#242a896b29)"><path fill="#ffffff" d="M 160.460938 255.773438 C 163.347656 255.761719 166.082031 254.449219 167.894531 252.207031 L 224.402344 182.554688 C 226.746094 179.648438 230.207031 177.886719 233.914062 177.636719 C 248.039062 176.710938 253.738281 195.480469 241.480469 202.5625 L 240.863281 202.921875 C 227.652344 210.425781 214.441406 217.933594 201.226562 225.4375 C 200.175781 226.035156 199.25 226.828125 198.488281 227.769531 L 188.824219 239.75 C 183.734375 246.0625 188.234375 255.457031 196.34375 255.4375 C 210.316406 255.402344 224.289062 255.378906 238.261719 255.34375 C 241.207031 255.34375 243.980469 253.988281 245.808594 251.675781 L 259.972656 233.734375 C 261.757812 231.46875 262.441406 228.515625 261.820312 225.699219 L 242.597656 138.09375 C 241.785156 134.445312 242.570312 130.648438 244.675781 127.589844 C 252.757812 115.964844 270.988281 123.214844 268.882812 137.214844 L 268.777344 137.921875 C 266.40625 152.925781 264.035156 167.9375 261.667969 182.949219 C 261.480469 184.140625 261.515625 185.367188 261.78125 186.546875 L 265.121094 201.570312 C 266.882812 209.488281 277.035156 211.824219 282.082031 205.476562 C 290.140625 195.316406 300.5 182.277344 308.144531 172.644531 C 309.980469 170.339844 310.65625 167.328125 309.980469 164.464844 L 304.785156 142.203125 C 304.128906 139.390625 302.242188 137.019531 299.652344 135.75 L 219.171875 96.160156 C 215.816406 94.519531 213.335938 91.542969 212.253906 87.988281 C 208.210938 74.425781 225.242188 64.6875 234.871094 75.066406 L 235.363281 75.589844 C 245.621094 86.796875 255.875 98.015625 266.136719 109.222656 C 266.949219 110.113281 267.929688 110.84375 269.015625 111.371094 L 282.847656 118.128906 C 290.136719 121.691406 298.289062 115.203125 296.46875 107.308594 C 293.332031 93.691406 290.195312 80.078125 287.058594 66.460938 C 286.394531 63.59375 284.464844 61.1875 281.800781 59.921875 L 261.15625 50.105469 C 258.550781 48.867188 255.523438 48.859375 252.910156 50.09375 L 171.78125 88.332031 C 168.402344 89.933594 164.523438 90.011719 161.078125 88.640625 C 147.949219 83.351562 150.957031 63.960938 165.074219 62.898438 L 165.78125 62.847656 C 180.941406 61.816406 196.105469 60.789062 211.261719 59.757812 C 212.46875 59.675781 213.652344 59.367188 214.746094 58.847656 L 228.652344 52.25 C 235.976562 48.773438 236 38.355469 228.675781 34.847656 C 216.074219 28.8125 203.472656 22.78125 190.875 16.746094 C 188.222656 15.472656 185.128906 15.488281 182.488281 16.773438 L 161.945312 26.792969 C 159.347656 28.058594 157.457031 30.421875 156.792969 33.234375 L 136.101562 120.507812 C 135.253906 124.140625 132.890625 127.226562 129.667969 129.066406 C 117.351562 136.027344 104.066406 121.585938 112.035156 109.890625 L 112.433594 109.300781 C 121.078125 96.804688 129.726562 84.3125 138.371094 71.816406 C 139.0625 70.824219 139.558594 69.703125 139.828125 68.527344 L 143.335938 53.539062 C 145.183594 45.644531 137.054688 39.132812 129.753906 42.664062 C 118.078125 48.320312 103.09375 55.578125 92.027344 60.933594 C 89.378906 62.21875 87.457031 64.640625 86.824219 67.515625 L 81.851562 89.828125 C 81.222656 92.648438 81.890625 95.597656 83.671875 97.867188 L 139 168.457031 C 141.3125 171.386719 142.257812 175.152344 141.683594 178.820312 C 139.445312 192.792969 119.871094 194.175781 115.695312 180.648438 L 115.484375 179.964844 C 111.109375 165.417969 106.726562 150.863281 102.351562 136.3125 C 102 135.15625 101.4375 134.074219 100.691406 133.121094 L 91.160156 121.03125 C 86.136719 114.660156 75.972656 116.957031 74.1875 124.875 C 71.109375 138.503906 68.03125 152.132812 64.945312 165.761719 C 64.296875 168.632812 64.992188 171.640625 66.839844 173.9375 L 81.183594 191.734375 C 82.996094 193.984375 85.71875 195.300781 88.609375 195.320312 L 178.300781 196.070312 C 182.03125 196.089844 185.566406 197.699219 188.074219 200.4375 C 197.605469 210.902344 186.480469 227.066406 173.300781 221.898438 L 172.640625 221.640625 C 158.535156 215.992188 144.429688 210.339844 130.324219 204.6875 C 129.199219 204.238281 128.007812 204.007812 126.796875 204 L 111.398438 203.914062 C 103.292969 203.867188 98.75 213.246094 103.820312 219.574219 C 112.558594 230.476562 121.289062 241.382812 130.027344 252.292969 C 131.867188 254.589844 134.652344 255.921875 137.597656 255.90625 L 160.460938 255.792969 Z M 134.785156 150.179688 L 142.65625 112.445312 C 143.25 109.570312 145.132812 107.128906 147.746094 105.804688 L 182.160156 88.421875 C 184.78125 87.101562 187.855469 87.039062 190.519531 88.265625 L 225.558594 104.328125 C 228.226562 105.554688 230.191406 107.921875 230.894531 110.769531 L 240.179688 148.179688 C 240.890625 151.027344 240.261719 154.039062 238.472656 156.367188 L 215.007812 186.957031 C 213.222656 189.285156 210.476562 190.667969 207.542969 190.730469 L 169 191.457031 C 166.066406 191.507812 163.265625 190.230469 161.394531 187.96875 L 136.796875 158.289062 C 134.925781 156.03125 134.183594 153.039062 134.785156 150.171875 Z M 134.785156 150.179688 " fill-opacity="1" fill-rule="nonzero"/></g></svg>