<svg xmlns="http://www.w3.org/2000/svg" xmlns:xlink="http://www.w3.org/1999/xlink" width="500" zoomAndPan="magnify" viewBox="0 0 375 374.999991" height="500" preserveAspectRatio="xMidYMid meet" version="1.0"><defs><clipPath id="165524c0da"><path d="M 3.230469 8 L 371.480469 8 L 371.480469 367.609375 L 3.230469 367.609375 Z M 3.230469 8 " clip-rule="nonzero"/></clipPath></defs><g clip-path="url(#165524c0da)"><path fill="#18a5f3" d="M 147.050781 367.140625 C 151.367188 367.117188 155.457031 365.160156 158.167969 361.800781 L 242.699219 257.609375 C 246.203125 253.261719 251.382812 250.628906 256.925781 250.253906 C 278.054688 248.867188 286.582031 276.945312 268.242188 287.542969 L 267.324219 288.074219 C 247.558594 299.304688 227.796875 310.53125 208.035156 321.761719 C 206.457031 322.652344 205.074219 323.839844 203.933594 325.246094 L 189.476562 343.167969 C 181.863281 352.613281 188.597656 366.664062 200.726562 366.632812 C 221.628906 366.585938 242.53125 366.542969 263.433594 366.496094 C 267.835938 366.496094 271.988281 364.464844 274.71875 361.007812 L 295.910156 334.167969 C 298.582031 330.78125 299.601562 326.363281 298.671875 322.148438 L 269.917969 191.101562 C 268.699219 185.644531 269.878906 179.960938 273.027344 175.386719 C 285.117188 158 312.382812 168.84375 309.234375 189.785156 L 309.078125 190.84375 C 305.53125 213.289062 301.988281 235.746094 298.441406 258.203125 C 298.164062 259.984375 298.214844 261.816406 298.613281 263.578125 L 303.613281 286.054688 C 306.246094 297.898438 321.433594 301.394531 328.980469 291.898438 C 341.039062 276.699219 356.535156 257.191406 367.972656 242.785156 C 370.714844 239.339844 371.722656 234.835938 370.714844 230.546875 L 362.941406 197.25 C 361.960938 193.042969 359.140625 189.496094 355.265625 187.597656 L 234.875 128.375 C 229.855469 125.921875 226.144531 121.464844 224.527344 116.148438 C 218.480469 95.859375 243.957031 81.292969 258.363281 96.820312 L 259.09375 97.601562 C 274.441406 114.363281 289.78125 131.148438 305.125 147.910156 C 306.34375 149.246094 307.808594 150.335938 309.433594 151.128906 L 330.128906 161.238281 C 341.027344 166.566406 353.226562 156.863281 350.503906 145.050781 C 345.8125 124.683594 341.117188 104.316406 336.425781 83.949219 C 335.433594 79.660156 332.542969 76.054688 328.5625 74.164062 L 297.679688 59.480469 C 293.78125 57.628906 289.253906 57.621094 285.34375 59.460938 L 163.980469 116.664062 C 158.933594 119.058594 153.128906 119.175781 147.972656 117.128906 C 128.335938 109.214844 132.832031 80.207031 153.953125 78.621094 L 155.011719 78.542969 C 177.683594 76.996094 200.371094 75.460938 223.042969 73.917969 C 224.847656 73.800781 226.617188 73.332031 228.25 72.5625 L 249.054688 62.691406 C 260.015625 57.492188 260.046875 41.90625 249.09375 36.660156 C 230.242188 27.628906 211.390625 18.609375 192.546875 9.578125 C 188.578125 7.675781 183.953125 7.695312 180.003906 9.617188 L 149.269531 24.609375 C 145.386719 26.5 142.554688 30.035156 141.566406 34.242188 L 110.613281 164.792969 C 109.34375 170.230469 105.8125 174.84375 100.988281 177.59375 C 82.5625 188.011719 62.691406 166.40625 74.613281 148.910156 L 75.207031 148.03125 C 88.136719 129.335938 101.078125 110.652344 114.007812 91.957031 C 115.039062 90.472656 115.78125 88.800781 116.1875 87.039062 L 121.433594 64.621094 C 124.199219 52.808594 112.039062 43.066406 101.117188 48.351562 C 83.652344 56.808594 61.234375 67.671875 44.679688 75.679688 C 40.71875 77.601562 37.847656 81.226562 36.898438 85.523438 L 29.460938 118.898438 C 28.519531 123.117188 29.519531 127.535156 32.183594 130.929688 L 114.949219 236.519531 C 118.40625 240.90625 119.820312 246.539062 118.960938 252.023438 C 115.613281 272.925781 86.335938 274.996094 80.085938 254.757812 L 79.769531 253.738281 C 73.226562 231.972656 66.671875 210.199219 60.125 188.4375 C 59.601562 186.703125 58.757812 185.089844 57.640625 183.664062 L 43.382812 165.574219 C 35.867188 156.050781 20.667969 159.484375 17.996094 171.328125 C 13.390625 191.714844 8.785156 212.101562 4.171875 232.488281 C 3.203125 236.785156 4.242188 241.28125 7.003906 244.71875 L 28.460938 271.34375 C 31.175781 274.707031 35.242188 276.679688 39.570312 276.707031 L 173.734375 277.828125 C 179.320312 277.859375 184.605469 280.261719 188.359375 284.363281 C 202.617188 300.015625 185.972656 324.195312 166.257812 316.464844 L 165.269531 316.078125 C 144.167969 307.632812 123.070312 299.175781 101.96875 290.71875 C 100.285156 290.046875 98.503906 289.699219 96.691406 289.691406 L 73.660156 289.5625 C 61.53125 289.492188 54.738281 303.523438 62.324219 312.988281 C 75.394531 329.296875 88.453125 345.613281 101.523438 361.929688 C 104.277344 365.367188 108.445312 367.355469 112.851562 367.335938 L 147.050781 367.167969 Z M 108.644531 209.179688 L 120.414062 152.734375 C 121.304688 148.4375 124.117188 144.78125 128.03125 142.800781 L 179.507812 116.800781 C 183.429688 114.820312 188.03125 114.730469 192.011719 116.5625 L 244.429688 140.59375 C 248.421875 142.425781 251.363281 145.96875 252.410156 150.226562 L 266.304688 206.191406 C 267.363281 210.449219 266.421875 214.953125 263.75 218.4375 L 228.648438 264.195312 C 225.976562 267.679688 221.867188 269.75 217.480469 269.835938 L 159.824219 270.925781 C 155.4375 271.003906 151.25 269.09375 148.445312 265.707031 L 111.652344 221.308594 C 108.851562 217.933594 107.742188 213.457031 108.644531 209.171875 Z M 108.644531 209.179688 " fill-opacity="1" fill-rule="nonzero"/></g></svg>